<?xml version="1.0"?>
<!DOCTYPE svg PUBLIC "-//W3C//DTD SVG 1.1//EN" "http://www.w3.org/Graphics/SVG/1.1/DTD/svg11.dtd">
<svg width="181.35600000000002mm" height="228.15600000000003mm" viewBox="0 0 181.35600000000002 228.15600000000003" xmlns="http://www.w3.org/2000/svg" version="1.1">
<g id="Sketch" transform="translate(90.678000,114.078000) scale(1,-1)">
<path id="Sketch_w0000"  d="M -69.85 20.22500000000001 L -88.9 20.22500000000001 L -88.9 -20.22500000000001 L -69.85 -20.22500000000001 L -69.85 -90.075 L -88.89999999999999 -90.075 A 57.1555 57.1555 0 0 1 -44.45 -112.3L -44.449999999999974 -55.150000000000006 L -12.7 -55.150000000000006 L -12.7 -105.95 L 12.7 -105.95 L 12.7 -55.150000000000006 L 44.45000000000002 -55.150000000000006 L 44.45000000000002 -112.30000000000001 A 57.1555 57.1555 0 0 1 88.9 -90.075L 69.85 -90.07500000000002 L 69.85 -20.225000000000023 L 88.9 -20.225000000000023 L 88.9 20.224999999999994 L 69.85 20.224999999999994 L 69.85 90.07499999999999 L 88.9 90.07499999999999 A 57.1555 57.1555 0 0 1 44.45 112.3L 44.449999999999996 55.15 L 12.7 55.15 L 12.7 105.94999999999999 L -12.7 105.94999999999999 L -12.7 55.15 L -44.449999999999996 55.15 L -44.449999999999996 112.30000000000001 A 57.1555 57.1555 0 0 1 -88.9 90.075L -69.85 90.075 L -69.85 20.22500000000001 " stroke="#000000" stroke-width="0.35 px" style="stroke-width:0.35;stroke-miterlimit:4;stroke-dasharray:none;fill:none;fill-opacity:1;fill-rule: evenodd"/>
<circle cx="79.375" cy="0.0" r="1.5875" stroke="#000000" stroke-width="0.35 px" style="stroke-width:0.35;stroke-miterlimit:4;stroke-dasharray:none;fill:none"/>
<circle cx="57.15" cy="101.98124999999999" r="1.5875" stroke="#000000" stroke-width="0.35 px" style="stroke-width:0.35;stroke-miterlimit:4;stroke-dasharray:none;fill:none"/>
<circle cx="-79.375" cy="0.0" r="1.5875" stroke="#000000" stroke-width="0.35 px" style="stroke-width:0.35;stroke-miterlimit:4;stroke-dasharray:none;fill:none"/>
<circle cx="-57.15" cy="101.98124999999999" r="1.5875" stroke="#000000" stroke-width="0.35 px" style="stroke-width:0.35;stroke-miterlimit:4;stroke-dasharray:none;fill:none"/>
<circle cx="0.0" cy="101.98124999999999" r="1.5875" stroke="#000000" stroke-width="0.35 px" style="stroke-width:0.35;stroke-miterlimit:4;stroke-dasharray:none;fill:none"/>
<circle cx="57.15" cy="-101.98125" r="1.5875" stroke="#000000" stroke-width="0.35 px" style="stroke-width:0.35;stroke-miterlimit:4;stroke-dasharray:none;fill:none"/>
<circle cx="0.0" cy="-101.98125" r="1.5875" stroke="#000000" stroke-width="0.35 px" style="stroke-width:0.35;stroke-miterlimit:4;stroke-dasharray:none;fill:none"/>
<circle cx="-57.15" cy="-101.98125" r="1.5875" stroke="#000000" stroke-width="0.35 px" style="stroke-width:0.35;stroke-miterlimit:4;stroke-dasharray:none;fill:none"/>
<circle cx="0.0" cy="34.925" r="9.525" stroke="#000000" stroke-width="0.35 px" style="stroke-width:0.35;stroke-miterlimit:4;stroke-dasharray:none;fill:none"/>
<circle cx="0.0" cy="-34.925" r="9.525" stroke="#000000" stroke-width="0.35 px" style="stroke-width:0.35;stroke-miterlimit:4;stroke-dasharray:none;fill:none"/>
<circle cx="57.15" cy="42.449999999999996" r="1.5875" stroke="#000000" stroke-width="0.35 px" style="stroke-width:0.35;stroke-miterlimit:4;stroke-dasharray:none;fill:none"/>
<circle cx="-57.15" cy="42.449999999999996" r="1.5875" stroke="#000000" stroke-width="0.35 px" style="stroke-width:0.35;stroke-miterlimit:4;stroke-dasharray:none;fill:none"/>
<circle cx="-57.15" cy="-42.45000000000001" r="1.5875" stroke="#000000" stroke-width="0.35 px" style="stroke-width:0.35;stroke-miterlimit:4;stroke-dasharray:none;fill:none"/>
<circle cx="57.15" cy="-42.45000000000001" r="1.5875" stroke="#000000" stroke-width="0.35 px" style="stroke-width:0.35;stroke-miterlimit:4;stroke-dasharray:none;fill:none"/>
<circle cx="10.31875" cy="64.675" r="1.5875" stroke="#000000" stroke-width="0.35 px" style="stroke-width:0.35;stroke-miterlimit:4;stroke-dasharray:none;fill:none"/>
<circle cx="10.31875" cy="72.6125" r="1.5875" stroke="#000000" stroke-width="0.35 px" style="stroke-width:0.35;stroke-miterlimit:4;stroke-dasharray:none;fill:none"/>
<circle cx="10.31875" cy="-64.67500000000001" r="1.5875" stroke="#000000" stroke-width="0.35 px" style="stroke-width:0.35;stroke-miterlimit:4;stroke-dasharray:none;fill:none"/>
<circle cx="10.31875" cy="-72.61250000000001" r="1.5875" stroke="#000000" stroke-width="0.35 px" style="stroke-width:0.35;stroke-miterlimit:4;stroke-dasharray:none;fill:none"/>
<circle cx="-41.76423889394411" cy="28.562313523000373" r="1.5875" stroke="#000000" stroke-width="0.35 px" style="stroke-width:0.35;stroke-miterlimit:4;stroke-dasharray:none;fill:none"/>
<circle cx="-13.982988893944109" cy="28.562313523000373" r="1.5875" stroke="#000000" stroke-width="0.35 px" style="stroke-width:0.35;stroke-miterlimit:4;stroke-dasharray:none;fill:none"/>
<circle cx="-57.22048889394411" cy="-22.634561476999625" r="1.5875" stroke="#000000" stroke-width="0.35 px" style="stroke-width:0.35;stroke-miterlimit:4;stroke-dasharray:none;fill:none"/>
<circle cx="-9.220488893944108" cy="-23.825186476999626" r="1.5875" stroke="#000000" stroke-width="0.35 px" style="stroke-width:0.35;stroke-miterlimit:4;stroke-dasharray:none;fill:none"/>
<circle cx="24.038589362270006" cy="28.562313523000373" r="1.5875" stroke="#000000" stroke-width="0.35 px" style="stroke-width:0.35;stroke-miterlimit:4;stroke-dasharray:none;fill:none"/>
<circle cx="51.81983936227" cy="28.562313523000373" r="1.5875" stroke="#000000" stroke-width="0.35 px" style="stroke-width:0.35;stroke-miterlimit:4;stroke-dasharray:none;fill:none"/>
<circle cx="56.582339362270005" cy="-23.825186476999622" r="1.5875" stroke="#000000" stroke-width="0.35 px" style="stroke-width:0.35;stroke-miterlimit:4;stroke-dasharray:none;fill:none"/>
<circle cx="8.582339362270007" cy="-22.63456147699962" r="1.5875" stroke="#000000" stroke-width="0.35 px" style="stroke-width:0.35;stroke-miterlimit:4;stroke-dasharray:none;fill:none"/>
<title>b'Sketch'</title>
</g>
</svg>