<?xml version="1.0"?>
<!DOCTYPE svg PUBLIC "-//W3C//DTD SVG 1.1//EN" "http://www.w3.org/Graphics/SVG/1.1/DTD/svg11.dtd">
<svg width="181.35600000000002mm" height="228.15599999999998mm" viewBox="0 0 181.35600000000002 228.15599999999998" xmlns="http://www.w3.org/2000/svg" version="1.1">
<g id="Sketch" transform="translate(90.678000,114.078000) scale(1,-1)">
<path id="Sketch_w0000"  d="M -69.85 20.22500000000001 L -88.9 20.22500000000001 L -88.9 -20.224999999999994 L -69.85 -20.224999999999994 L -69.85 -90.07499999999999 L -88.9 -90.07499999999999 A 57.1555 57.1555 0 0 1 -44.45 -112.3L -44.44999999999999 -55.15 L -12.7 -55.15 L -12.7 -105.94999999999999 L 12.7 -105.94999999999999 L 12.700000000000001 -55.15 L 44.450000000000024 -55.15 L 44.450000000000024 -112.29999999999998 A 57.1555 57.1555 0 0 1 88.9 -90.075L 69.85 -90.07499999999999 L 69.85 -20.224999999999994 L 88.9 -20.22499999999999 L 88.9 20.225000000000005 L 69.85 20.225000000000005 L 69.85 90.075 L 88.9 90.075 A 57.1555 57.1555 0 0 1 44.45 112.3L 44.45 55.15 L 12.7 55.15 L 12.7 105.94999999999999 L -12.7 105.94999999999999 L -12.7 55.15 L -44.45 55.15 L -44.45 112.29999999999998 A 57.1555 57.1555 0 0 1 -88.9 90.075L -69.85 90.075 L -69.85 20.22500000000001 " stroke="#000000" stroke-width="0.35 px" style="stroke-width:0.35;stroke-miterlimit:4;stroke-dasharray:none;fill:none;fill-opacity:1;fill-rule: evenodd"/>
<circle cx="79.375" cy="0.0" r="1.5875" stroke="#000000" stroke-width="0.35 px" style="stroke-width:0.35;stroke-miterlimit:4;stroke-dasharray:none;fill:none"/>
<circle cx="57.15" cy="101.98125" r="1.5875" stroke="#000000" stroke-width="0.35 px" style="stroke-width:0.35;stroke-miterlimit:4;stroke-dasharray:none;fill:none"/>
<circle cx="-79.375" cy="0.0" r="1.5875" stroke="#000000" stroke-width="0.35 px" style="stroke-width:0.35;stroke-miterlimit:4;stroke-dasharray:none;fill:none"/>
<circle cx="-57.15" cy="101.98125" r="1.5875" stroke="#000000" stroke-width="0.35 px" style="stroke-width:0.35;stroke-miterlimit:4;stroke-dasharray:none;fill:none"/>
<circle cx="0.0" cy="101.98125" r="1.5875" stroke="#000000" stroke-width="0.35 px" style="stroke-width:0.35;stroke-miterlimit:4;stroke-dasharray:none;fill:none"/>
<circle cx="57.15" cy="-101.98124999999999" r="1.5875" stroke="#000000" stroke-width="0.35 px" style="stroke-width:0.35;stroke-miterlimit:4;stroke-dasharray:none;fill:none"/>
<circle cx="0.0" cy="-101.98124999999999" r="1.5875" stroke="#000000" stroke-width="0.35 px" style="stroke-width:0.35;stroke-miterlimit:4;stroke-dasharray:none;fill:none"/>
<circle cx="-57.15" cy="-101.98124999999999" r="1.5875" stroke="#000000" stroke-width="0.35 px" style="stroke-width:0.35;stroke-miterlimit:4;stroke-dasharray:none;fill:none"/>
<circle cx="0.0" cy="34.925" r="9.525" stroke="#000000" stroke-width="0.35 px" style="stroke-width:0.35;stroke-miterlimit:4;stroke-dasharray:none;fill:none"/>
<circle cx="0.0" cy="-34.925" r="9.525" stroke="#000000" stroke-width="0.35 px" style="stroke-width:0.35;stroke-miterlimit:4;stroke-dasharray:none;fill:none"/>
<circle cx="-49.2125" cy="-37.68749999999999" r="1.5875" stroke="#000000" stroke-width="0.35 px" style="stroke-width:0.35;stroke-miterlimit:4;stroke-dasharray:none;fill:none"/>
<circle cx="-49.2125" cy="-29.749999999999996" r="1.5875" stroke="#000000" stroke-width="0.35 px" style="stroke-width:0.35;stroke-miterlimit:4;stroke-dasharray:none;fill:none"/>
<circle cx="49.2125" cy="-29.749999999999993" r="1.5875" stroke="#000000" stroke-width="0.35 px" style="stroke-width:0.35;stroke-miterlimit:4;stroke-dasharray:none;fill:none"/>
<circle cx="49.2125" cy="-37.68749999999999" r="1.5875" stroke="#000000" stroke-width="0.35 px" style="stroke-width:0.35;stroke-miterlimit:4;stroke-dasharray:none;fill:none"/>
<circle cx="49.2125" cy="29.750000000000007" r="1.5875" stroke="#000000" stroke-width="0.35 px" style="stroke-width:0.35;stroke-miterlimit:4;stroke-dasharray:none;fill:none"/>
<circle cx="49.2125" cy="37.68750000000001" r="1.5875" stroke="#000000" stroke-width="0.35 px" style="stroke-width:0.35;stroke-miterlimit:4;stroke-dasharray:none;fill:none"/>
<circle cx="-49.2125" cy="29.750000000000004" r="1.5875" stroke="#000000" stroke-width="0.35 px" style="stroke-width:0.35;stroke-miterlimit:4;stroke-dasharray:none;fill:none"/>
<circle cx="-49.2125" cy="37.6875" r="1.5875" stroke="#000000" stroke-width="0.35 px" style="stroke-width:0.35;stroke-miterlimit:4;stroke-dasharray:none;fill:none"/>
<circle cx="18.499999999999996" cy="18.5" r="1.5875" stroke="#000000" stroke-width="0.35 px" style="stroke-width:0.35;stroke-miterlimit:4;stroke-dasharray:none;fill:none"/>
<circle cx="18.499999999999996" cy="-18.499999999999996" r="1.5875" stroke="#000000" stroke-width="0.35 px" style="stroke-width:0.35;stroke-miterlimit:4;stroke-dasharray:none;fill:none"/>
<circle cx="-18.5" cy="18.5" r="1.5875" stroke="#000000" stroke-width="0.35 px" style="stroke-width:0.35;stroke-miterlimit:4;stroke-dasharray:none;fill:none"/>
<circle cx="-18.5" cy="-18.499999999999996" r="1.5875" stroke="#000000" stroke-width="0.35 px" style="stroke-width:0.35;stroke-miterlimit:4;stroke-dasharray:none;fill:none"/>
<circle cx="57.15" cy="-83.04374999999999" r="1.5875" stroke="#000000" stroke-width="0.35 px" style="stroke-width:0.35;stroke-miterlimit:4;stroke-dasharray:none;fill:none"/>
<circle cx="57.15" cy="-94.04374999999999" r="1.5875" stroke="#000000" stroke-width="0.35 px" style="stroke-width:0.35;stroke-miterlimit:4;stroke-dasharray:none;fill:none"/>
<circle cx="0.0" cy="-83.04374999999999" r="1.5875" stroke="#000000" stroke-width="0.35 px" style="stroke-width:0.35;stroke-miterlimit:4;stroke-dasharray:none;fill:none"/>
<circle cx="0.0" cy="-94.04374999999999" r="1.5875" stroke="#000000" stroke-width="0.35 px" style="stroke-width:0.35;stroke-miterlimit:4;stroke-dasharray:none;fill:none"/>
<circle cx="-57.15" cy="-83.04374999999999" r="1.5875" stroke="#000000" stroke-width="0.35 px" style="stroke-width:0.35;stroke-miterlimit:4;stroke-dasharray:none;fill:none"/>
<circle cx="-57.15" cy="-94.04374999999999" r="1.5875" stroke="#000000" stroke-width="0.35 px" style="stroke-width:0.35;stroke-miterlimit:4;stroke-dasharray:none;fill:none"/>
<circle cx="-10.31875" cy="-72.6125" r="1.5875" stroke="#000000" stroke-width="0.35 px" style="stroke-width:0.35;stroke-miterlimit:4;stroke-dasharray:none;fill:none"/>
<circle cx="-10.31875" cy="-64.675" r="1.5875" stroke="#000000" stroke-width="0.35 px" style="stroke-width:0.35;stroke-miterlimit:4;stroke-dasharray:none;fill:none"/>
<circle cx="-10.31875" cy="72.6125" r="1.5875" stroke="#000000" stroke-width="0.35 px" style="stroke-width:0.35;stroke-miterlimit:4;stroke-dasharray:none;fill:none"/>
<circle cx="-10.31875" cy="64.675" r="1.5875" stroke="#000000" stroke-width="0.35 px" style="stroke-width:0.35;stroke-miterlimit:4;stroke-dasharray:none;fill:none"/>
<title>b'Sketch'</title>
</g>
</svg>