<?xml version="1.0"?>
<!DOCTYPE svg PUBLIC "-//W3C//DTD SVG 1.1//EN" "http://www.w3.org/Graphics/SVG/1.1/DTD/svg11.dtd">
<svg width="181.35600000002566mm" height="228.1560000000005mm" viewBox="0 0 181.35600000002566 228.1560000000005" xmlns="http://www.w3.org/2000/svg" version="1.1">
<g id="Sketch" transform="translate(90.678000,114.078000) scale(1,-1)">
<path id="Sketch_w0000"  d="M -69.8500000000252 20.225000000033376 L -88.9000000000252 20.225000000033376 L -88.9000000000252 -20.224999999963856 L -69.85000000002522 -20.22499999996386 L -69.85000000002522 -90.07499999996385 L -88.90000000002519 -90.07499999996385 L -44.45 -112.3 L -44.45 -55.15 L -12.699999999999996 -55.15 L -12.699999999999998 -105.95 L 12.700000000000001 -105.95 L 12.700000000000001 -55.15 L 44.449999999999996 -55.15 L 44.449999999999996 -112.3 L 88.89999999999996 -90.07499999999722 L 69.85000000000001 -90.07499999999722 L 69.85000000000001 -20.224999999997227 L 88.89999999999996 -20.22499999999723 L 88.89999999999996 20.22500000000001 L 69.85 20.22500000000001 L 69.85 90.075 L 88.89999999999996 90.075 L 44.45 112.3 L 44.45 55.15 L 12.700000000000003 55.15 L 12.700000000000001 105.94999999999999 L -12.699999999999998 105.94999999999999 L -12.699999999999998 55.15 L -44.45 55.15 L -44.45 112.3 L -88.9000000000252 90.07500000003338 L -69.8500000000252 90.07500000003338 L -69.8500000000252 20.225000000033376 " stroke="#000000" stroke-width="0.35 px" style="stroke-width:0.35;stroke-miterlimit:4;stroke-dasharray:none;fill:none;fill-opacity:1;fill-rule: evenodd"/>
<title>b'Sketch'</title>
</g>
</svg>