<?xml version="1.0"?>
<!DOCTYPE svg PUBLIC "-//W3C//DTD SVG 1.1//EN" "http://www.w3.org/Graphics/SVG/1.1/DTD/svg11.dtd">
<svg width="181.356mm" height="253.556mm" viewBox="0 0 181.356 253.556" xmlns="http://www.w3.org/2000/svg" version="1.1">
<g id="Sketch" transform="translate(90.678000,126.778000) scale(1,-1)">
<path id="Sketch_w0000"  d="M -69.85 20.224999999999994 L -88.89999999999999 20.224999999999994 L -88.89999999999999 -20.224999999999994 L -69.85 -20.224999999999998 L -69.85 -90.07499999999999 L -88.89999999999999 -90.07499999999999 L -44.449999999999996 -125.0 L -44.449999999999996 -55.150000000000006 L -12.700000000000003 -55.150000000000006 L -12.700000000000003 -125.0 L 12.699999999999996 -125.0 L 12.699999999999998 -55.150000000000006 L 44.449999999999996 -55.150000000000006 L 44.449999999999996 -125.0 L 88.89999999999999 -90.07499999999999 L 69.85 -90.07499999999999 L 69.85 -20.224999999999994 L 88.89999999999999 -20.224999999999994 L 88.89999999999999 20.224999999999994 L 69.85 20.224999999999998 L 69.85 90.075 L 88.89999999999999 90.075 L 44.449999999999996 125.0 L 44.449999999999996 55.150000000000006 L 12.699999999999996 55.150000000000006 L 12.699999999999998 125.0 L -12.700000000000001 125.0 L -12.700000000000001 55.150000000000006 L -44.449999999999996 55.15 L -44.449999999999996 125.0 L -88.89999999999999 90.07499999999999 L -69.85 90.07499999999999 L -69.85 20.224999999999994 " stroke="#000000" stroke-width="0.35 px" style="stroke-width:0.35;stroke-miterlimit:4;stroke-dasharray:none;fill:none;fill-opacity:1;fill-rule: evenodd"/>
<title>b'Sketch'</title>
</g>
</svg>