<?xml version="1.0"?>
<!DOCTYPE svg PUBLIC "-//W3C//DTD SVG 1.1//EN" "http://www.w3.org/Graphics/SVG/1.1/DTD/svg11.dtd">
<svg width="181.35600000000002mm" height="228.156mm" viewBox="0 0 181.35600000000002 228.156" xmlns="http://www.w3.org/2000/svg" version="1.1">
<g id="Sketch" transform="translate(90.678000,114.078000) scale(1,-1)">
<path id="Sketch_w0000"  d="M -69.85 20.224999999999998 L -88.9 20.225 L -88.9 -20.225 L -69.85 -20.225 L -69.85 -90.07499999999999 L -88.9 -90.07499999999999 A 57.1555 57.1555 0 0 1 -44.45 -112.3L -44.45 -55.15 L -12.699999999999996 -55.15 L -12.699999999999996 -105.95 L 12.7 -105.95 L 12.7 -55.15 L 44.45 -55.15 L 44.44999999999999 -112.29999999999998 A 57.1555 57.1555 0 0 1 88.9 -90.075L 69.85 -90.07499999999999 L 69.85 -20.22500000000001 L 88.9 -20.225000000000005 L 88.9 20.224999999999998 L 69.85 20.224999999999998 L 69.85 90.07499999999999 L 88.89999999999998 90.07499999999999 A 57.1555 57.1555 0 0 1 44.45 112.3L 44.44999999999999 55.15 L 12.7 55.15 L 12.7 105.94999999999999 L -12.7 105.94999999999999 L -12.7 55.15 L -44.449999999999996 55.15 L -44.449999999999996 112.29999999999998 A 57.1555 57.1555 0 0 1 -88.9 90.075L -69.85 90.07499999999999 L -69.85 20.224999999999998 " stroke="#000000" stroke-width="0.35 px" style="stroke-width:0.35;stroke-miterlimit:4;stroke-dasharray:none;fill:none;fill-opacity:1;fill-rule: evenodd"/>
<title>b'Sketch'</title>
</g>
</svg>